<svg width="16" height="16" viewBox="0 0 16 16" fill="none" xmlns="http://www.w3.org/2000/svg">
<g id="fxemoji:email" clip-path="url(#clip0_142_1997)">
<path id="Vector" d="M15.9945 13.2815C16.0551 13.1176 9.09085 7.859 9.09085 7.859C8.21897 7.2156 7.76041 7.20547 6.89822 7.859C6.89822 7.859 -0.0559043 13.1133 0.00262695 13.275L0.0012207 13.2762C0.00193945 13.2776 0.0030957 13.2785 0.00406445 13.2798C0.0630411 13.4406 0.148828 13.5901 0.257783 13.7222C0.303814 13.778 0.359283 13.8248 0.412627 13.8734L0.410033 13.8754C0.414283 13.8792 0.419939 13.8809 0.424189 13.8847C0.650283 14.0864 0.935408 14.217 1.25216 14.2543C1.25713 14.2549 1.26113 14.2575 1.2661 14.2581H1.28522C1.33338 14.2627 1.37916 14.2742 1.42847 14.2742H14.576C15.2234 14.2742 15.7719 13.8671 15.9898 13.2964C15.9924 13.2921 15.9964 13.2891 15.9988 13.2847L15.9945 13.2815Z" fill="black" fill-opacity="0.38"/>
<path id="Vector_2" d="M8.00412 7.2555L0.0379639 13.2301V4.76609C0.0379639 3.94109 0.70662 3.27244 1.53162 3.27244H14.4766C15.3016 3.27244 15.9703 3.94109 15.9703 4.76609V13.2301L8.00412 7.2555Z" fill="black"/>
<path id="Vector_3" d="M0.130859 4.24675L6.93227 9.58891C7.7907 10.2224 8.2422 10.2324 9.09111 9.58891L15.8818 4.25522C15.764 4.04166 15.5876 3.87294 15.3859 3.73841L15.4793 3.66522C15.2514 3.45769 14.96 3.32316 14.6365 3.28841L1.37227 3.28888C1.0497 3.32316 0.757828 3.45816 0.530328 3.66522L0.623047 3.7375C0.423672 3.87016 0.248922 4.03597 0.130859 4.24675Z" fill="#EDECE6"/>
<path id="Vector_4" d="M0.128699 4.25794C0.0689805 4.41934 6.92595 9.59684 6.92595 9.59684C7.78439 10.2303 8.23589 10.2403 9.08479 9.59684C9.08479 9.59684 15.9318 4.42353 15.8741 4.26434L15.8755 4.26319C15.8748 4.26178 15.8737 4.26087 15.8727 4.25959C15.8147 4.10131 15.7302 3.95403 15.6229 3.824C15.5776 3.76903 15.523 3.72303 15.4705 3.67516L15.473 3.67319C15.4689 3.66947 15.4633 3.66772 15.4591 3.664C15.2365 3.46544 14.9558 3.33681 14.6439 3.30009C14.639 3.2995 14.6351 3.29697 14.6302 3.29637H14.6114C14.564 3.29184 14.5189 3.28047 14.4703 3.28047H1.52532C0.887887 3.28047 0.347824 3.68134 0.133355 4.24325C0.130793 4.24744 0.126855 4.25047 0.124512 4.25475L0.128699 4.25794Z" fill="black" fill-opacity="0.43"/>
<g id="Vector_5" filter="url(#filter0_d_142_1997)">
<path d="M9.47597 4.76059H8.26872C8.21771 4.76059 8.16878 4.78086 8.13271 4.81693C8.09664 4.853 8.07638 4.90192 8.07638 4.95294V5.63175C8.07638 5.68276 8.09664 5.73169 8.13271 5.76776C8.16878 5.80383 8.21771 5.82409 8.26872 5.82409H9.25044C9.30145 5.82409 9.35037 5.84436 9.38645 5.88043C9.42252 5.9165 9.44278 5.96542 9.44278 6.01644V6.37944C9.44278 6.43045 9.42252 6.47937 9.38645 6.51545C9.35037 6.55152 9.30145 6.57178 9.25044 6.57178H8.26872C8.21771 6.57178 8.16878 6.59205 8.13271 6.62812C8.09664 6.66419 8.07638 6.71311 8.07638 6.76412V7.50094C8.07638 7.55195 8.09664 7.60087 8.13271 7.63695C8.16878 7.67302 8.21771 7.69328 8.26872 7.69328H9.55984C9.61086 7.69328 9.65978 7.71355 9.69585 7.74962C9.73192 7.78569 9.75219 7.83461 9.75219 7.88562V8.27441C9.75219 8.32542 9.73192 8.37434 9.69585 8.41041C9.65978 8.44649 9.61086 8.46675 9.55984 8.46675H7.19234C7.14133 8.46675 7.09241 8.44649 7.05634 8.41041C7.02026 8.37434 7 8.32542 7 8.27441V4.19234C7 4.14133 7.02026 4.09241 7.05634 4.05634C7.09241 4.02026 7.14133 4 7.19234 4H9.53016C9.64731 4 9.73725 4.10381 9.72053 4.21978L9.66637 4.59566C9.65978 4.64145 9.63689 4.68333 9.60192 4.71362C9.56695 4.74392 9.52224 4.76059 9.47597 4.76059Z" fill="white"/>
</g>
</g>
<defs>
<filter id="filter0_d_142_1997" x="-15" y="-3" width="46.7522" height="48.4668" filterUnits="userSpaceOnUse" color-interpolation-filters="sRGB">
<feFlood flood-opacity="0" result="BackgroundImageFix"/>
<feColorMatrix in="SourceAlpha" type="matrix" values="0 0 0 0 0 0 0 0 0 0 0 0 0 0 0 0 0 0 127 0" result="hardAlpha"/>
<feOffset dy="15"/>
<feGaussianBlur stdDeviation="11"/>
<feComposite in2="hardAlpha" operator="out"/>
<feColorMatrix type="matrix" values="0 0 0 0 0 0 0 0 0 0 0 0 0 0 0 0 0 0 0.25 0"/>
<feBlend mode="normal" in2="BackgroundImageFix" result="effect1_dropShadow_142_1997"/>
<feBlend mode="normal" in="SourceGraphic" in2="effect1_dropShadow_142_1997" result="shape"/>
</filter>
<clipPath id="clip0_142_1997">
<rect width="16" height="16" fill="white"/>
</clipPath>
</defs>
</svg>
